<?xml version="1.0" standalone="no"?>
<!DOCTYPE svg PUBLIC "-//W3C//DTD SVG 20010904//EN"
 "http://www.w3.org/TR/2001/REC-SVG-20010904/DTD/svg10.dtd">
<svg version="1.0" xmlns="http://www.w3.org/2000/svg"
 width="278.000000pt" height="300.000000pt" viewBox="0 0 278.000000 300.000000"
 preserveAspectRatio="xMidYMid meet">
<metadata>
Created by potrace 1.10, written by Peter Selinger 2001-2011
</metadata>
<g transform="translate(0.000000,300.000000) scale(0.100000,-0.100000)"
fill="#000000" stroke="none">
<path d="M149 2871 l-29 -29 0 -351 0 -350 23 -27 c16 -19 38 -29 73 -35 27
-4 227 -8 444 -9 347 -1 392 -3 369 -15 -63 -34 -59 24 -59 -966 l0 -901 34
-34 34 -34 351 0 c378 0 393 2 419 52 10 18 12 168 10 671 l-3 647 101 0 c95
0 102 1 125 26 23 25 24 32 29 202 l5 177 261 3 262 2 25 25 c13 14 27 39 31
56 10 51 7 825 -3 852 -6 14 -20 35 -32 46 l-23 21 -1209 0 -1209 0 -29 -29z
m2461 -30 c15 -30 14 -873 -2 -889 -9 -9 -193 -12 -765 -12 l-753 0 0 -850 0
-850 308 0 307 0 -3 601 c-2 457 0 605 9 616 7 7 24 13 38 11 l26 -3 3 -640
c2 -593 1 -641 -15 -652 -22 -17 -704 -19 -734 -3 -19 10 -19 31 -19 919 0
756 2 910 14 920 10 8 218 11 762 11 l749 -1 3 381 2 380 -1150 2 -1150 3 0
-295 0 -295 1025 0 1025 0 0 198 0 197 -861 -2 -862 -3 -1 -82 -1 -83 790 -2
790 -3 3 -24 c8 -52 29 -51 -834 -51 -671 0 -803 2 -813 14 -8 9 -11 60 -9
157 l3 144 924 3 c674 1 927 -1 937 -9 19 -16 20 -499 2 -517 -17 -17 -2169
-17 -2186 0 -17 17 -17 699 0 716 9 9 294 12 1220 12 1183 0 1208 0 1218 -19z
m-122 -113 c17 -17 17 -639 0 -656 -14 -14 -144 -17 -152 -3 -3 4 6 13 19 19
52 24 56 51 53 317 l-3 245 -28 27 -27 28 -921 0 -921 0 -29 -33 -29 -32 0
-136 c0 -74 5 -144 10 -155 27 -50 11 -49 860 -49 866 0 834 -2 859 59 14 33
7 53 -29 86 -22 20 -40 20 -782 23 l-759 3 3 32 3 32 809 3 c641 2 811 0 818
-10 10 -17 10 -259 0 -276 -7 -10 -210 -12 -983 -10 l-974 3 -3 235 c-1 129 0
240 2 247 7 18 2186 19 2204 1z m-584 -834 c13 -5 16 -24 16 -106 0 -118 -8
-138 -54 -138 -38 0 -46 12 -46 72 0 30 -7 46 -29 69 l-29 29 -283 0 -282 0
-33 -36 -34 -35 0 69 c0 47 4 72 13 75 18 8 742 8 761 1z m122 -5 c8 -13 6
-341 -2 -349 -3 -3 -98 -7 -210 -10 l-205 -5 1 -579 c0 -418 -3 -582 -11 -592
-15 -19 -389 -20 -407 -2 -17 17 -17 1399 0 1416 17 17 559 17 576 0 7 -7 12
-42 12 -87 l0 -76 87 1 88 1 1 131 c1 72 4 138 7 146 7 18 52 22 63 5z m-366
-1554 l0 -45 -40 0 -41 0 36 37 c19 20 35 40 35 45 0 4 2 8 5 8 3 0 5 -20 5
-45z m-487 -10 l35 -35 -39 0 c-38 0 -39 1 -39 35 0 19 2 35 4 35 2 0 20 -16
39 -35z"/>
</g>
</svg>
